<svg xmlns="http://www.w3.org/2000/svg" xmlns:xlink="http://www.w3.org/1999/xlink" width="80" zoomAndPan="magnify" viewBox="0 0 60 60" height="80" preserveAspectRatio="xMidYMid meet" version="1.0"><defs><clipPath id="3bb922cf58"><path d="M 9 6.214844 L 50.828125 6.214844 L 50.828125 53.464844 L 9 53.464844 Z M 9 6.214844 " clip-rule="nonzero"/></clipPath></defs><rect x="-6" width="72" fill="#ffffff" y="-6" height="72" fill-opacity="1"/><rect x="-6" width="72" fill="#fff5e1" y="-6" height="72" fill-opacity="1"/><g clip-path="url(#3bb922cf58)"><path fill="#967128" d="M 51.007812 32.757812 L 51.007812 12.59375 C 51.007812 12.109375 50.769531 11.65625 50.375 11.378906 C 43.601562 6.625 36.820312 6.195312 30.007812 6.203125 C 23.234375 6.210938 16.457031 6.640625 9.648438 11.375 C 9.25 11.652344 9.011719 12.109375 9.011719 12.59375 C 9.011719 12.59375 9.011719 22.730469 9.011719 32.757812 C 9.011719 44.355469 18.410156 53.753906 30.007812 53.753906 L 30.007812 52.273438 C 30.007812 53.753906 30.007812 53.753906 30.007812 53.753906 C 41.605469 53.753906 51.007812 44.355469 51.007812 32.757812 Z M 48.042969 13.378906 C 42.050781 9.433594 36.035156 9.160156 30.011719 9.164062 C 24.019531 9.171875 18 9.453125 11.972656 13.382812 L 11.972656 32.757812 C 11.972656 42.71875 20.046875 50.792969 30.007812 50.792969 C 30.007812 50.792969 30.007812 52.273438 30.007812 52.273438 L 30.007812 50.792969 C 39.96875 50.792969 48.042969 42.71875 48.042969 32.757812 Z M 48.042969 13.378906 " fill-opacity="1" fill-rule="evenodd"/></g><path fill="#967128" d="M 39.296875 28.890625 C 39.296875 28.070312 38.632812 27.40625 37.816406 27.40625 L 22.203125 27.40625 C 21.382812 27.40625 20.71875 28.070312 20.71875 28.890625 L 20.71875 39.792969 C 20.71875 40.609375 21.382812 41.273438 22.203125 41.273438 L 37.816406 41.273438 C 38.632812 41.273438 39.296875 40.609375 39.296875 39.792969 Z M 39.296875 28.890625 " fill-opacity="1" fill-rule="evenodd"/><path fill="#967128" d="M 37.34375 26.023438 C 37.34375 24.074219 36.570312 22.210938 35.195312 20.835938 C 33.820312 19.457031 31.953125 18.6875 30.007812 18.6875 L 30.007812 20.167969 C 30.007812 18.6875 30.007812 18.6875 30.007812 18.6875 C 28.0625 18.6875 26.195312 19.457031 24.820312 20.835938 C 23.445312 22.210938 22.671875 24.074219 22.671875 26.023438 C 22.671875 27.605469 22.671875 28.890625 22.671875 28.890625 C 22.671875 29.707031 23.335938 30.371094 24.152344 30.371094 L 35.863281 30.371094 C 36.679688 30.371094 37.34375 29.707031 37.34375 28.890625 Z M 34.382812 27.40625 L 34.382812 26.023438 C 34.382812 24.863281 33.921875 23.75 33.101562 22.929688 C 32.28125 22.109375 31.167969 21.648438 30.007812 21.648438 L 30.007812 20.167969 L 30.007812 21.648438 C 28.847656 21.648438 27.738281 22.109375 26.917969 22.929688 C 26.097656 23.75 25.636719 24.863281 25.636719 26.023438 L 25.636719 27.40625 Z M 34.382812 27.40625 " fill-opacity="1" fill-rule="evenodd"/></svg>