<svg xmlns="http://www.w3.org/2000/svg" xmlns:xlink="http://www.w3.org/1999/xlink" width="80" zoomAndPan="magnify" viewBox="0 0 60 60" height="80" preserveAspectRatio="xMidYMid meet" version="1.0"><defs><clipPath id="60c444cb7c"><path d="M 6.882812 7.230469 L 53 7.230469 L 53 44 L 6.882812 44 Z M 6.882812 7.230469 " clip-rule="nonzero"/></clipPath><clipPath id="9f721d4906"><path d="M 41 51 L 44 51 L 44 52.980469 L 41 52.980469 Z M 41 51 " clip-rule="nonzero"/></clipPath><clipPath id="b5347df08c"><path d="M 36 26 L 53.382812 26 L 53.382812 52.980469 L 36 52.980469 Z M 36 26 " clip-rule="nonzero"/></clipPath><clipPath id="3d20fa85eb"><path d="M 36 30 L 53.382812 30 L 53.382812 33 L 36 33 Z M 36 30 " clip-rule="nonzero"/></clipPath><clipPath id="a4f03e3ae6"><path d="M 36 46 L 53.382812 46 L 53.382812 49 L 36 49 Z M 36 46 " clip-rule="nonzero"/></clipPath><clipPath id="07a05e60be"><path d="M 15 51 L 36 51 L 36 52.980469 L 15 52.980469 Z M 15 51 " clip-rule="nonzero"/></clipPath><clipPath id="81c2a103df"><path d="M 20 42 L 26 42 L 26 52.980469 L 20 52.980469 Z M 20 42 " clip-rule="nonzero"/></clipPath></defs><rect x="-6" width="72" fill="#ffffff" y="-6" height="72" fill-opacity="1"/><rect x="-6" width="72" fill="#fff5e1" y="-6" height="72" fill-opacity="1"/><g clip-path="url(#60c444cb7c)"><path fill="#967128" d="M 11.863281 43.800781 L 11.164062 43.800781 C 8.800781 43.800781 6.882812 41.878906 6.882812 39.519531 L 6.882812 11.519531 C 6.882812 9.160156 8.800781 7.238281 11.164062 7.238281 L 48.207031 7.238281 C 50.566406 7.238281 52.484375 9.160156 52.484375 11.519531 L 52.484375 24.242188 C 52.484375 24.664062 52.144531 25.007812 51.722656 25.007812 C 51.300781 25.007812 50.957031 24.664062 50.957031 24.242188 L 50.957031 11.519531 C 50.957031 10.003906 49.722656 8.769531 48.207031 8.769531 L 11.164062 8.769531 C 9.648438 8.769531 8.414062 10.003906 8.414062 11.519531 L 8.414062 39.519531 C 8.414062 41.039062 9.648438 42.273438 11.164062 42.273438 L 11.863281 42.273438 C 12.285156 42.273438 12.628906 42.613281 12.628906 43.035156 C 12.628906 43.457031 12.285156 43.800781 11.863281 43.800781 Z M 11.863281 43.800781 " fill-opacity="1" fill-rule="nonzero"/></g><path fill="#967128" d="M 14.546875 43.800781 L 13.914062 43.800781 C 13.492188 43.800781 13.148438 43.457031 13.148438 43.035156 C 13.148438 42.613281 13.492188 42.273438 13.914062 42.273438 L 14.546875 42.273438 C 14.96875 42.273438 15.3125 42.613281 15.3125 43.035156 C 15.3125 43.457031 14.96875 43.800781 14.546875 43.800781 Z M 14.546875 43.800781 " fill-opacity="1" fill-rule="nonzero"/><path fill="#967128" d="M 33.683594 43.800781 L 16.695312 43.800781 C 16.273438 43.800781 15.929688 43.457031 15.929688 43.035156 C 15.929688 42.613281 16.273438 42.273438 16.695312 42.273438 L 33.683594 42.273438 C 34.105469 42.273438 34.445312 42.613281 34.445312 43.035156 C 34.445312 43.457031 34.105469 43.800781 33.683594 43.800781 Z M 33.683594 43.800781 " fill-opacity="1" fill-rule="nonzero"/><g clip-path="url(#9f721d4906)"><path fill="#967128" d="M 43.007812 52.714844 L 42.03125 52.714844 C 41.609375 52.714844 41.269531 52.371094 41.269531 51.949219 C 41.269531 51.53125 41.609375 51.1875 42.03125 51.1875 L 43.007812 51.1875 C 43.429688 51.1875 43.773438 51.53125 43.773438 51.949219 C 43.773438 52.371094 43.429688 52.714844 43.007812 52.714844 Z M 43.007812 52.714844 " fill-opacity="1" fill-rule="nonzero"/></g><g clip-path="url(#b5347df08c)"><path fill="#967128" d="M 49.144531 52.714844 L 45.277344 52.714844 C 44.855469 52.714844 44.515625 52.371094 44.515625 51.949219 C 44.515625 51.53125 44.855469 51.1875 45.277344 51.1875 L 49.144531 51.1875 C 50.488281 51.1875 51.582031 50.09375 51.582031 48.75 L 51.582031 30.039062 C 51.582031 28.695312 50.488281 27.605469 49.144531 27.605469 L 40.105469 27.605469 C 38.761719 27.605469 37.667969 28.695312 37.667969 30.039062 L 37.667969 48.75 C 37.667969 50.207031 38.839844 51.023438 40 51.1875 C 40.417969 51.246094 40.710938 51.632812 40.652344 52.050781 C 40.59375 52.46875 40.210938 52.761719 39.789062 52.699219 C 37.640625 52.402344 36.140625 50.777344 36.140625 48.75 L 36.140625 30.039062 C 36.140625 27.851562 37.917969 26.070312 40.105469 26.070312 L 49.148438 26.070312 C 51.335938 26.070312 53.113281 27.851562 53.113281 30.039062 L 53.113281 48.75 C 53.113281 50.933594 51.332031 52.714844 49.144531 52.714844 Z M 49.144531 52.714844 " fill-opacity="1" fill-rule="nonzero"/></g><g clip-path="url(#3d20fa85eb)"><path fill="#967128" d="M 52.347656 32.121094 L 36.902344 32.121094 C 36.480469 32.121094 36.140625 31.78125 36.140625 31.359375 C 36.140625 30.9375 36.480469 30.59375 36.902344 30.59375 L 52.347656 30.59375 C 52.769531 30.59375 53.113281 30.9375 53.113281 31.359375 C 53.113281 31.78125 52.769531 32.121094 52.347656 32.121094 Z M 52.347656 32.121094 " fill-opacity="1" fill-rule="nonzero"/></g><g clip-path="url(#a4f03e3ae6)"><path fill="#967128" d="M 52.347656 48.195312 L 36.902344 48.195312 C 36.480469 48.195312 36.140625 47.851562 36.140625 47.429688 C 36.140625 47.007812 36.480469 46.667969 36.902344 46.667969 L 52.347656 46.667969 C 52.769531 46.667969 53.113281 47.007812 53.113281 47.429688 C 53.113281 47.851562 52.769531 48.195312 52.347656 48.195312 Z M 52.347656 48.195312 " fill-opacity="1" fill-rule="nonzero"/></g><g clip-path="url(#07a05e60be)"><path fill="#967128" d="M 34.476562 52.714844 L 16.183594 52.714844 C 15.761719 52.714844 15.421875 52.371094 15.421875 51.949219 C 15.421875 51.53125 15.761719 51.1875 16.183594 51.1875 L 34.476562 51.1875 C 34.898438 51.1875 35.242188 51.53125 35.242188 51.949219 C 35.242188 52.371094 34.898438 52.714844 34.476562 52.714844 Z M 34.476562 52.714844 " fill-opacity="1" fill-rule="nonzero"/></g><g clip-path="url(#81c2a103df)"><path fill="#967128" d="M 20.988281 52.714844 C 20.757812 52.714844 20.523438 52.609375 20.375 52.40625 C 20.125 52.066406 20.195312 51.589844 20.535156 51.335938 C 20.652344 51.246094 23.566406 48.960938 23.566406 43.035156 C 23.566406 42.613281 23.910156 42.269531 24.332031 42.269531 C 24.753906 42.269531 25.097656 42.613281 25.097656 43.035156 C 25.097656 49.777344 21.59375 52.453125 21.445312 52.5625 C 21.308594 52.667969 21.148438 52.714844 20.988281 52.714844 Z M 20.988281 52.714844 " fill-opacity="1" fill-rule="nonzero"/></g></svg>