<svg xmlns="http://www.w3.org/2000/svg" xmlns:xlink="http://www.w3.org/1999/xlink" width="80" zoomAndPan="magnify" viewBox="0 0 60 60" height="80" preserveAspectRatio="xMidYMid meet" version="1.0"><defs><clipPath id="fcaa10ef23"><path d="M 3.59375 11.046875 L 56.085938 11.046875 L 56.085938 48.945312 L 3.59375 48.945312 Z M 3.59375 11.046875 " clip-rule="nonzero"/></clipPath></defs><rect x="-6" width="72" fill="#ffffff" y="-6" height="72" fill-opacity="1"/><rect x="-6" width="72" fill="#fff5e1" y="-6" height="72" fill-opacity="1"/><g clip-path="url(#fcaa10ef23)"><path fill="#967128" d="M 55.722656 48.945312 L 4.28125 48.945312 C 3.902344 48.945312 3.59375 48.636719 3.59375 48.257812 L 3.59375 11.734375 C 3.59375 11.355469 3.902344 11.046875 4.28125 11.046875 C 4.660156 11.046875 4.96875 11.355469 4.96875 11.734375 L 4.96875 47.574219 L 55.722656 47.574219 C 56.101562 47.574219 56.410156 47.878906 56.410156 48.257812 C 56.410156 48.636719 56.101562 48.945312 55.722656 48.945312 " fill-opacity="1" fill-rule="nonzero"/></g><path fill="#967128" d="M 22.703125 26.207031 L 21.617188 27.074219 L 13.132812 33.8125 L 12.027344 34.695312 C 11.859375 34.253906 11.558594 33.878906 11.171875 33.621094 L 12.28125 32.742188 L 20.84375 25.9375 L 21.984375 25.027344 C 22.09375 25.496094 22.351562 25.90625 22.703125 26.207031 " fill-opacity="1" fill-rule="nonzero"/><path fill="#967128" d="M 33.1875 31.042969 L 34.230469 31.972656 C 33.84375 32.234375 33.546875 32.613281 33.382812 33.054688 L 32.3125 32.101562 L 26.703125 27.109375 L 25.675781 26.191406 C 26.027344 25.882812 26.285156 25.464844 26.386719 24.988281 L 27.5 25.976562 L 33.1875 31.042969 " fill-opacity="1" fill-rule="nonzero"/><path fill="#967128" d="M 48.6875 26.269531 L 47.515625 27.058594 L 38.988281 32.804688 L 37.757812 33.636719 C 37.714844 33.144531 37.515625 32.699219 37.207031 32.347656 L 38.351562 31.582031 L 46.746094 25.921875 L 47.917969 25.132812 C 48.050781 25.585938 48.328125 25.984375 48.6875 26.269531 " fill-opacity="1" fill-rule="nonzero"/><path fill="#967128" d="M 9.914062 37.757812 C 8.667969 37.757812 7.652344 36.746094 7.652344 35.496094 C 7.652344 34.25 8.667969 33.234375 9.914062 33.234375 C 10.378906 33.234375 10.8125 33.375 11.171875 33.621094 C 11.558594 33.878906 11.859375 34.253906 12.027344 34.695312 C 12.125 34.945312 12.175781 35.214844 12.175781 35.496094 C 12.175781 36.746094 11.160156 37.757812 9.914062 37.757812 Z M 13.132812 33.8125 C 12.917969 33.402344 12.628906 33.039062 12.28125 32.742188 C 11.644531 32.191406 10.816406 31.863281 9.914062 31.863281 C 7.910156 31.863281 6.277344 33.492188 6.277344 35.496094 C 6.277344 37.5 7.910156 39.132812 9.914062 39.132812 C 11.917969 39.132812 13.550781 37.5 13.550781 35.496094 C 13.550781 34.890625 13.398438 34.320312 13.132812 33.8125 " fill-opacity="1" fill-rule="nonzero"/><path fill="#967128" d="M 25.675781 26.191406 C 25.277344 26.542969 24.753906 26.757812 24.179688 26.757812 C 23.617188 26.757812 23.101562 26.550781 22.703125 26.207031 C 22.351562 25.90625 22.09375 25.496094 21.984375 25.027344 C 21.941406 24.859375 21.917969 24.679688 21.917969 24.496094 C 21.917969 23.25 22.933594 22.234375 24.179688 22.234375 C 25.429688 22.234375 26.441406 23.25 26.441406 24.496094 C 26.441406 24.664062 26.421875 24.832031 26.386719 24.988281 C 26.285156 25.464844 26.027344 25.882812 25.675781 26.191406 Z M 24.179688 20.859375 C 22.175781 20.859375 20.546875 22.492188 20.546875 24.496094 C 20.546875 25.007812 20.652344 25.492188 20.84375 25.9375 C 21.027344 26.363281 21.292969 26.75 21.617188 27.074219 C 22.273438 27.726562 23.179688 28.132812 24.179688 28.132812 C 25.160156 28.132812 26.050781 27.742188 26.703125 27.109375 C 27.039062 26.789062 27.308594 26.40625 27.5 25.976562 C 27.703125 25.527344 27.816406 25.023438 27.816406 24.496094 C 27.816406 22.492188 26.183594 20.859375 24.179688 20.859375 " fill-opacity="1" fill-rule="nonzero"/><path fill="#967128" d="M 35.507812 36.097656 C 34.257812 36.097656 33.242188 35.085938 33.242188 33.835938 C 33.242188 33.5625 33.292969 33.300781 33.382812 33.054688 C 33.546875 32.613281 33.84375 32.234375 34.230469 31.972656 C 34.59375 31.722656 35.035156 31.574219 35.507812 31.574219 C 36.183594 31.574219 36.792969 31.875 37.207031 32.347656 C 37.515625 32.699219 37.714844 33.144531 37.757812 33.636719 C 37.765625 33.703125 37.765625 33.769531 37.765625 33.835938 C 37.765625 35.085938 36.753906 36.097656 35.507812 36.097656 Z M 38.988281 32.804688 C 38.859375 32.351562 38.636719 31.9375 38.351562 31.582031 C 37.6875 30.742188 36.65625 30.203125 35.507812 30.203125 C 34.625 30.203125 33.816406 30.515625 33.1875 31.042969 C 32.832031 31.335938 32.535156 31.695312 32.3125 32.101562 C 32.03125 32.617188 31.871094 33.210938 31.871094 33.835938 C 31.871094 35.84375 33.5 37.472656 35.507812 37.472656 C 37.511719 37.472656 39.140625 35.84375 39.140625 33.835938 C 39.140625 33.480469 39.089844 33.132812 38.988281 32.804688 " fill-opacity="1" fill-rule="nonzero"/><path fill="#967128" d="M 50.09375 26.757812 C 49.5625 26.757812 49.074219 26.574219 48.6875 26.269531 C 48.328125 25.984375 48.050781 25.585938 47.917969 25.132812 C 47.859375 24.929688 47.828125 24.714844 47.828125 24.496094 C 47.828125 23.25 48.84375 22.234375 50.09375 22.234375 C 51.339844 22.234375 52.351562 23.25 52.351562 24.496094 C 52.351562 25.742188 51.339844 26.757812 50.09375 26.757812 Z M 50.09375 20.859375 C 48.085938 20.859375 46.457031 22.492188 46.457031 24.496094 C 46.457031 25.003906 46.558594 25.484375 46.746094 25.921875 C 46.929688 26.347656 47.191406 26.734375 47.515625 27.058594 C 48.175781 27.71875 49.085938 28.132812 50.09375 28.132812 C 52.09375 28.132812 53.726562 26.5 53.726562 24.496094 C 53.726562 22.492188 52.09375 20.859375 50.09375 20.859375 " fill-opacity="1" fill-rule="nonzero"/></svg>